<svg width="960" height="600" viewBox="0 0 960 600" fill="none" xmlns="http://www.w3.org/2000/svg">
<rect width="960" height="600" rx="40" fill="#061312"/>
<rect width="960" height="600" rx="40" fill="url(#bg)"/>
<rect x="48" y="52" width="864" height="496" rx="28" fill="#0B1818" stroke="rgba(255,255,255,0.08)"/>
<rect x="48" y="52" width="864" height="52" rx="28" fill="#102121"/>
<circle cx="86" cy="78" r="8" fill="#FB7185"/>
<circle cx="114" cy="78" r="8" fill="#FBBF24"/>
<circle cx="142" cy="78" r="8" fill="#34D399"/>
<rect x="188" y="66" width="178" height="24" rx="12" fill="#183030"/>
<rect x="94" y="138" width="772" height="222" rx="32" fill="url(#hero)"/>
<rect x="144" y="192" width="240" height="18" rx="9" fill="#ECFDF5"/>
<rect x="144" y="224" width="310" height="12" rx="6" fill="#D1FAE5" fill-opacity="0.72"/>
<rect x="144" y="250" width="272" height="12" rx="6" fill="#D1FAE5" fill-opacity="0.42"/>
<rect x="144" y="294" width="140" height="36" rx="18" fill="#0F172A" fill-opacity="0.28"/>
<circle cx="726" cy="230" r="82" fill="#ECFDF5" fill-opacity="0.15"/>
<circle cx="726" cy="230" r="56" fill="#ECFDF5" fill-opacity="0.2"/>
<rect x="94" y="388" width="242" height="118" rx="28" fill="#102121"/>
<rect x="360" y="388" width="242" height="118" rx="28" fill="#102121"/>
<rect x="626" y="388" width="240" height="118" rx="28" fill="#102121"/>
<rect x="128" y="420" width="126" height="12" rx="6" fill="#A7F3D0" fill-opacity="0.92"/>
<rect x="128" y="448" width="172" height="10" rx="5" fill="#365314" fill-opacity="0.5"/>
<rect x="394" y="420" width="110" height="12" rx="6" fill="#93C5FD" fill-opacity="0.84"/>
<rect x="394" y="448" width="166" height="10" rx="5" fill="#1E3A8A" fill-opacity="0.42"/>
<rect x="660" y="420" width="126" height="12" rx="6" fill="#FDE68A" fill-opacity="0.9"/>
<rect x="660" y="448" width="162" height="10" rx="5" fill="#78350F" fill-opacity="0.36"/>
<defs>
<linearGradient id="bg" x1="104" y1="56" x2="854" y2="548" gradientUnits="userSpaceOnUse">
<stop stop-color="#042F2E"/>
<stop offset="0.54" stop-color="#0B1818"/>
<stop offset="1" stop-color="#0F766E"/>
</linearGradient>
<linearGradient id="hero" x1="94" y1="138" x2="866" y2="360" gradientUnits="userSpaceOnUse">
<stop stop-color="#10B981"/>
<stop offset="1" stop-color="#06B6D4"/>
</linearGradient>
</defs>
</svg>
