<svg width="960" height="600" viewBox="0 0 960 600" fill="none" xmlns="http://www.w3.org/2000/svg">
<rect width="960" height="600" rx="40" fill="#050816"/>
<rect width="960" height="600" rx="40" fill="url(#bg)"/>
<rect x="48" y="52" width="864" height="496" rx="28" fill="#0A1020" stroke="rgba(255,255,255,0.08)"/>
<rect x="48" y="52" width="864" height="52" rx="28" fill="#0E1730"/>
<circle cx="86" cy="78" r="8" fill="#FB7185"/>
<circle cx="114" cy="78" r="8" fill="#FBBF24"/>
<circle cx="142" cy="78" r="8" fill="#34D399"/>
<rect x="188" y="66" width="194" height="24" rx="12" fill="#15213C"/>
<rect x="80" y="140" width="164" height="360" rx="24" fill="#10192D"/>
<rect x="106" y="174" width="72" height="12" rx="6" fill="#E2E8F0" fill-opacity="0.9"/>
<rect x="106" y="216" width="112" height="14" rx="7" fill="#22D3EE" fill-opacity="0.72"/>
<rect x="106" y="254" width="116" height="12" rx="6" fill="#1E293B"/>
<rect x="106" y="286" width="92" height="12" rx="6" fill="#1E293B"/>
<rect x="106" y="318" width="122" height="12" rx="6" fill="#1E293B"/>
<rect x="106" y="350" width="118" height="12" rx="6" fill="#1E293B"/>
<rect x="106" y="400" width="112" height="70" rx="18" fill="#0F766E" fill-opacity="0.18"/>
<rect x="276" y="140" width="606" height="120" rx="28" fill="#0F172A"/>
<path d="M318 220C360 184 420 186 464 200C504 213 540 238 585 235C643 231 692 177 748 177C794 177 831 210 850 234" stroke="url(#line)" stroke-width="10" stroke-linecap="round"/>
<rect x="318" y="174" width="118" height="14" rx="7" fill="#E2E8F0" fill-opacity="0.86"/>
<rect x="760" y="174" width="90" height="42" rx="21" fill="#FFFFFF" fill-opacity="0.08"/>
<rect x="276" y="292" width="184" height="104" rx="24" fill="#10192D"/>
<rect x="486" y="292" width="184" height="104" rx="24" fill="#10192D"/>
<rect x="696" y="292" width="186" height="104" rx="24" fill="#10192D"/>
<rect x="306" y="324" width="82" height="12" rx="6" fill="#C4B5FD" fill-opacity="0.9"/>
<rect x="306" y="350" width="120" height="28" rx="14" fill="#8B5CF6" fill-opacity="0.16"/>
<rect x="516" y="324" width="74" height="12" rx="6" fill="#67E8F9" fill-opacity="0.9"/>
<rect x="516" y="350" width="122" height="28" rx="14" fill="#06B6D4" fill-opacity="0.16"/>
<rect x="726" y="324" width="86" height="12" rx="6" fill="#FDE68A" fill-opacity="0.9"/>
<rect x="726" y="350" width="116" height="28" rx="14" fill="#F59E0B" fill-opacity="0.16"/>
<rect x="276" y="422" width="382" height="78" rx="24" fill="#10192D"/>
<rect x="684" y="422" width="198" height="78" rx="24" fill="#10192D"/>
<rect x="306" y="446" width="152" height="12" rx="6" fill="#E2E8F0" fill-opacity="0.82"/>
<rect x="306" y="470" width="230" height="10" rx="5" fill="#334155"/>
<rect x="714" y="444" width="58" height="12" rx="6" fill="#67E8F9" fill-opacity="0.82"/>
<rect x="714" y="468" width="138" height="10" rx="5" fill="#334155"/>
<defs>
<linearGradient id="bg" x1="86" y1="48" x2="856" y2="552" gradientUnits="userSpaceOnUse">
<stop stop-color="#0B1220"/>
<stop offset="0.5" stop-color="#0F172A"/>
<stop offset="1" stop-color="#083344"/>
</linearGradient>
<linearGradient id="line" x1="318" y1="210" x2="850" y2="210" gradientUnits="userSpaceOnUse">
<stop stop-color="#22D3EE"/>
<stop offset="1" stop-color="#8B5CF6"/>
</linearGradient>
</defs>
</svg>
