<svg width="960" height="600" viewBox="0 0 960 600" fill="none" xmlns="http://www.w3.org/2000/svg">
<rect width="960" height="600" rx="40" fill="#07111F"/>
<rect width="960" height="600" rx="40" fill="url(#bg)"/>
<rect x="48" y="52" width="864" height="496" rx="28" fill="#08101C" stroke="rgba(255,255,255,0.08)"/>
<rect x="48" y="52" width="864" height="52" rx="28" fill="#0D1727"/>
<circle cx="86" cy="78" r="8" fill="#FB7185"/>
<circle cx="114" cy="78" r="8" fill="#FBBF24"/>
<circle cx="142" cy="78" r="8" fill="#34D399"/>
<rect x="188" y="66" width="178" height="24" rx="12" fill="#162235"/>
<rect x="80" y="140" width="184" height="360" rx="24" fill="#0D1727"/>
<rect x="104" y="174" width="86" height="12" rx="6" fill="#E2E8F0" fill-opacity="0.88"/>
<rect x="104" y="214" width="136" height="12" rx="6" fill="#7DD3FC" fill-opacity="0.6"/>
<rect x="104" y="250" width="120" height="10" rx="5" fill="#1E293B"/>
<rect x="104" y="278" width="104" height="10" rx="5" fill="#1E293B"/>
<rect x="104" y="306" width="132" height="10" rx="5" fill="#1E293B"/>
<rect x="104" y="360" width="136" height="96" rx="18" fill="url(#sidebarCard)"/>
<rect x="296" y="140" width="584" height="144" rx="28" fill="url(#hero)"/>
<rect x="334" y="180" width="260" height="18" rx="9" fill="#F8FAFC"/>
<rect x="334" y="214" width="324" height="12" rx="6" fill="#CBD5E1" fill-opacity="0.72"/>
<rect x="334" y="244" width="154" height="36" rx="18" fill="#F8FAFC"/>
<rect x="508" y="244" width="128" height="36" rx="18" fill="#FFFFFF" fill-opacity="0.12"/>
<rect x="296" y="314" width="180" height="96" rx="24" fill="#0F1B2D"/>
<rect x="498" y="314" width="180" height="96" rx="24" fill="#0F1B2D"/>
<rect x="700" y="314" width="180" height="96" rx="24" fill="#0F1B2D"/>
<rect x="326" y="338" width="74" height="12" rx="6" fill="#93C5FD" fill-opacity="0.88"/>
<rect x="326" y="362" width="112" height="28" rx="14" fill="#E0F2FE" fill-opacity="0.15"/>
<rect x="528" y="336" width="92" height="12" rx="6" fill="#C4B5FD" fill-opacity="0.88"/>
<rect x="528" y="360" width="120" height="34" rx="17" fill="#A78BFA" fill-opacity="0.16"/>
<rect x="730" y="338" width="88" height="12" rx="6" fill="#FDE68A" fill-opacity="0.9"/>
<rect x="730" y="360" width="104" height="34" rx="17" fill="#FBBF24" fill-opacity="0.14"/>
<rect x="296" y="432" width="584" height="68" rx="24" fill="#0D1727"/>
<rect x="326" y="454" width="184" height="12" rx="6" fill="#E2E8F0" fill-opacity="0.82"/>
<rect x="326" y="478" width="304" height="10" rx="5" fill="#334155"/>
<rect x="714" y="452" width="128" height="28" rx="14" fill="#38BDF8" fill-opacity="0.22"/>
<defs>
<linearGradient id="bg" x1="120" y1="40" x2="840" y2="560" gradientUnits="userSpaceOnUse">
<stop stop-color="#0F172A"/>
<stop offset="0.48" stop-color="#111827"/>
<stop offset="1" stop-color="#1E1B4B"/>
</linearGradient>
<linearGradient id="hero" x1="296" y1="140" x2="880" y2="284" gradientUnits="userSpaceOnUse">
<stop stop-color="#38BDF8"/>
<stop offset="1" stop-color="#8B5CF6"/>
</linearGradient>
<linearGradient id="sidebarCard" x1="104" y1="360" x2="240" y2="456" gradientUnits="userSpaceOnUse">
<stop stop-color="#1D4ED8"/>
<stop offset="1" stop-color="#7C3AED"/>
</linearGradient>
</defs>
</svg>
